<?xml version="1.0" encoding="UTF-8"?>
<svg version="1.1" xmlns="http://www.w3.org/2000/svg" width="1920" height="2058">
<path d="M0 0 C543.18 0 1086.36 0 1646 0 C1646 45.21 1646 90.42 1646 137 C1691.21 137 1736.42 137 1783 137 C1783 725.39 1783 1313.78 1783 1920 C1737.79 1920 1692.58 1920 1646 1920 C1646 1965.21 1646 2010.42 1646 2057 C1102.82 2057 559.64 2057 0 2057 C0 2011.79 0 1966.58 0 1920 C-45.21 1920 -90.42 1920 -137 1920 C-137 1331.61 -137 743.22 -137 137 C-91.79 137 -46.58 137 0 137 C0 91.79 0 46.58 0 0 Z " fill="#FFFFFF" transform="translate(137,0)"/>
<path d="M0 0 C543.18 0 1086.36 0 1646 0 C1646 45.21 1646 90.42 1646 137 C1691.21 137 1736.42 137 1783 137 C1783 725.39 1783 1313.78 1783 1920 C1737.79 1920 1692.58 1920 1646 1920 C1646 1965.21 1646 2010.42 1646 2057 C1102.82 2057 559.64 2057 0 2057 C0 2011.79 0 1966.58 0 1920 C-45.21 1920 -90.42 1920 -137 1920 C-137 1331.61 -137 743.22 -137 137 C-91.79 137 -46.58 137 0 137 C0 91.79 0 46.58 0 0 Z M137 137 C137 182.21 137 227.42 137 274 C91.79 274 46.58 274 0 274 C0 681.55 0 1089.1 0 1509 C45.21 1509 90.42 1509 137 1509 C137 1554.21 137 1599.42 137 1646 C589.76 1646 1042.52 1646 1509 1646 C1509 1600.79 1509 1555.58 1509 1509 C1554.21 1509 1599.42 1509 1646 1509 C1646 1101.45 1646 693.9 1646 274 C1600.79 274 1555.58 274 1509 274 C1509 228.79 1509 183.58 1509 137 C1056.24 137 603.48 137 137 137 Z " fill="#655561" transform="translate(137,0)"/>
<path d="M0 0 C45.21 0 90.42 0 137 0 C137 45.21 137 90.42 137 137 C589.76 137 1042.52 137 1509 137 C1509 91.79 1509 46.58 1509 0 C1554.21 0 1599.42 0 1646 0 C1646 90.42 1646 180.84 1646 274 C1600.79 274 1555.58 274 1509 274 C1509 319.21 1509 364.42 1509 411 C1056.24 411 603.48 411 137 411 C137 365.79 137 320.58 137 274 C91.79 274 46.58 274 0 274 C0 183.58 0 93.16 0 0 Z " fill="#7D929E" transform="translate(137,1509)"/>
<path d="M0 0 C45.21 0 90.42 0 137 0 C137 180.84 137 361.68 137 548 C91.79 548 46.58 548 0 548 C0 367.16 0 186.32 0 0 Z " fill="#655561" transform="translate(1234,549)"/>
<path d="M0 0 C45.21 0 90.42 0 137 0 C137 180.84 137 361.68 137 548 C91.79 548 46.58 548 0 548 C0 367.16 0 186.32 0 0 Z " fill="#655561" transform="translate(549,549)"/>
<path d="M0 0 C90.42 0 180.84 0 274 0 C274 45.21 274 90.42 274 137 C228.79 137 183.58 137 137 137 C137 182.21 137 227.42 137 274 C91.79 274 46.58 274 0 274 C0 183.58 0 93.16 0 0 Z " fill="#6C6A76" transform="translate(1646,1783)"/>
<path d="M0 0 C45.21 0 90.42 0 137 0 C137 45.21 137 90.42 137 137 C91.79 137 46.58 137 0 137 C0 91.79 0 46.58 0 0 Z " fill="#6C6A76" transform="translate(1646,1920)"/>
<path d="M0 0 C45.21 0 90.42 0 137 0 C137 45.21 137 90.42 137 137 C91.79 137 46.58 137 0 137 C0 91.79 0 46.58 0 0 Z " fill="#6C6A76" transform="translate(137,1920)"/>
<path d="M0 0 C45.21 0 90.42 0 137 0 C137 45.21 137 90.42 137 137 C91.79 137 46.58 137 0 137 C0 91.79 0 46.58 0 0 Z " fill="#655561" transform="translate(1646,1783)"/>
<path d="M0 0 C45.21 0 90.42 0 137 0 C137 45.21 137 90.42 137 137 C91.79 137 46.58 137 0 137 C0 91.79 0 46.58 0 0 Z " fill="#6C6A76" transform="translate(0,1783)"/>
<path d="M0 0 C45.21 0 90.42 0 137 0 C137 45.21 137 90.42 137 137 C91.79 137 46.58 137 0 137 C0 91.79 0 46.58 0 0 Z " fill="#6C6A76" transform="translate(1783,137)"/>
<path d="M0 0 C45.21 0 90.42 0 137 0 C137 45.21 137 90.42 137 137 C91.79 137 46.58 137 0 137 C0 91.79 0 46.58 0 0 Z " fill="#6C6A76" transform="translate(0,137)"/>
<path d="M0 0 C45.21 0 90.42 0 137 0 C137 45.21 137 90.42 137 137 C91.79 137 46.58 137 0 137 C0 91.79 0 46.58 0 0 Z " fill="#6C6A76" transform="translate(1646,0)"/>
<path d="M0 0 C45.21 0 90.42 0 137 0 C137 45.21 137 90.42 137 137 C91.79 137 46.58 137 0 137 C0 91.79 0 46.58 0 0 Z " fill="#6C6A76" transform="translate(137,0)"/>
</svg>
